<svg id="Layer_1" data-name="Layer 1" xmlns="http://www.w3.org/2000/svg" viewBox="0 0 627.84 789.24"><defs><style>.cls-1{fill:#231f20;}</style></defs><path class="cls-1" d="M252.44,755.92c12.76.54,25.51.88,38.25.71s25.44-.59,38.1-1.6,25.24-2.45,37.71-4.52a342.54,342.54,0,0,0,36.9-8.13c24.18-6.75,47.5-16.4,68.25-29.86a190.74,190.74,0,0,0,28.82-23,178.91,178.91,0,0,0,23.43-28.1,181.21,181.21,0,0,0,26.63-67.6c1.15-6,1.85-12.08,2.47-18.16l.33-4.57.17-2.29.09-2.29.2-4.58,0-4.59a217.39,217.39,0,0,0-2.91-36.56c-.22-1.51-.51-3-.8-4.51l-.86-4.51-1-4.48-.49-2.24-.57-2.22-1.13-4.44L544.81,494c-.8-2.95-1.82-5.83-2.74-8.74-2-5.77-4.14-11.5-6.62-17.07a176.1,176.1,0,0,0-8.11-16.42l-2.18-4-1.09-2-1.2-2-4.8-7.84-1.2-2c-.41-.65-.87-1.26-1.3-1.9l-2.63-3.78-2.62-3.78c-.88-1.26-1.73-2.54-2.7-3.73-3.82-4.82-7.43-9.8-11.59-14.35-2-2.3-4-4.68-6.09-6.93l-6.41-6.66c-1.08-1.1-2.11-2.24-3.22-3.31l-3.37-3.18L470.22,380l-7-6-3.51-3L456,368l-7.31-5.72c-2.48-1.84-5-3.6-7.54-5.41-5-3.7-10.29-6.91-15.45-10.33a378,378,0,0,0-66.74-33,680.4,680.4,0,0,0-71.91-22.85c-6.07-1.61-12.2-2.9-18.31-4.31-6.14-1.2-12.27-2.5-18.45-3.49a361.22,361.22,0,0,0-37.17-4.56,327.68,327.68,0,0,0-37.34-.51l-9.31.59-4.55.44c-1.52.2-3,.37-4.55.58a178.14,178.14,0,0,0-52.76,16.17,140.41,140.41,0,0,0-30.81,20.05c-9.22,8-17.13,17.56-21.75,28.63a73.1,73.1,0,0,0-5,35.87,83.31,83.31,0,0,0,12.37,34.89,95,95,0,0,0,11.46,15c2.18,2.3,4.43,4.54,6.83,6.63s4.86,4.1,7.41,6a98,98,0,0,1-28.21-26A87.26,87.26,0,0,1,41.56,381a76,76,0,0,1,12.57-57.33,103,103,0,0,1,13.05-15.19,149.1,149.1,0,0,1,32.13-23.12,186.68,186.68,0,0,1,36.56-15,178.55,178.55,0,0,1,19.33-4.56c1.64-.28,3.28-.53,4.92-.79l4.95-.66,9.78-.94a322,322,0,0,1,39.16-.71,377.41,377.41,0,0,1,38.91,3.68c6.45.86,12.83,2.08,19.24,3.19,6.35,1.32,12.74,2.53,19,4.05s12.6,3.06,18.88,4.66c3.13.82,6.24,1.73,9.35,2.61l4.68,1.32,4.64,1.42,9.27,2.84,9.21,3,4.6,1.51,4.57,1.6,9.14,3.2,9.16,3.49,4.58,1.76c1.53.59,3,1.28,4.52,1.92l9,3.88c3,1.31,5.91,2.8,8.87,4.19,6,2.72,11.69,5.89,17.49,8.93l2.17,1.15,2.13,1.24,4.25,2.47,4.24,2.48c1.42.82,2.85,1.63,4.21,2.54,5.5,3.57,11.11,7,16.41,10.88,2.67,1.91,5.38,3.76,8,5.72l7.79,6,3.88,3,3.76,3.2,7.5,6.42,7.22,6.76,3.59,3.38c1.19,1.14,2.31,2.36,3.46,3.55l6.84,7.15c2.24,2.42,4.34,5,6.52,7.46,4.43,4.9,8.32,10.27,12.4,15.47,1,1.28,2,2.66,2.9,4l2.82,4.09,2.82,4.09c.46.69.95,1.36,1.39,2.06l1.3,2.12,5.17,8.49,1.29,2.13,1.17,2.19,2.32,4.41a231,231,0,0,1,24.87,75.4,234.55,234.55,0,0,1,2.55,39.71c-.06,6.65-.6,13.28-1.26,19.89s-1.72,13.19-3.11,19.7a202.41,202.41,0,0,1-11.67,38.14c-.61,1.55-1.33,3-2,4.57s-1.36,3.05-2.1,4.54c-1.52,3-2.94,6-4.61,8.88a189.46,189.46,0,0,1-10.57,17,192.22,192.22,0,0,1-58.27,53.33c-22.65,13.51-47.51,22.47-72.77,28.22a353.53,353.53,0,0,1-38.24,6.3c-12.81,1.4-25.66,2.22-38.5,2.38s-25.66-.12-38.44-.89S265.1,757.62,252.44,755.92Z"/><path class="cls-1" d="M264.8,266.48c-16.56-3.34-33.41-4.57-50.16-4.83a293.11,293.11,0,0,0-49.88,3.58,232.23,232.23,0,0,0-24.25,5.2,198.91,198.91,0,0,0-23.28,8c-3.77,1.55-7.43,3.27-11,5.07s-7.13,3.65-10.59,5.63a110.2,110.2,0,0,0-10,6.49c-3.21,2.36-6.26,4.94-9.22,7.61l-.06.05a6.58,6.58,0,0,1-9.31-.49,6.44,6.44,0,0,1-1.6-3.33,267.73,267.73,0,0,1,13.18-137,259.66,259.66,0,0,1,32.81-61.18A256.29,256.29,0,0,1,159.32,51l1.7-1.37,1.74-1.31,3.48-2.62c2.3-1.77,4.71-3.43,7.14-5.09a120.87,120.87,0,0,1,15.48-9,79.26,79.26,0,0,1,8.48-3.54,65,65,0,0,1,9-2.53c1.53-.35,3.1-.56,4.67-.8s3.22-.33,4.83-.4a53.64,53.64,0,0,1,9.64.51,48.57,48.57,0,0,1,18.41,6.51,39.55,39.55,0,0,1,14,14.43,47.91,47.91,0,0,1,5.7,18.66,62.46,62.46,0,0,1,.27,9.46c-.14,3.16-.52,6.13-.94,9.12a116.68,116.68,0,0,1-11,34.07c-5.18,10.62-11.38,20.41-17.53,30s-12.29,18.88-17.74,28.48a198.32,198.32,0,0,0-14,29.68l-12.22-4.94A273.8,273.8,0,0,1,271.94,96.06c4.39-3.43,8.9-6.7,13.48-9.87s9.29-6.16,14.1-9,9.66-5.56,14.64-8.07c2.47-1.29,5-2.47,7.51-3.68s5.15-2.34,7.78-3.41a116.19,116.19,0,0,1,16.41-5.36,75.38,75.38,0,0,1,17.69-2.22,52.15,52.15,0,0,1,18.26,3.17,45.47,45.47,0,0,1,16,10.09,52.4,52.4,0,0,1,10.69,15.16,65.71,65.71,0,0,1,5.31,17.27,73.91,73.91,0,0,1,.76,17.82A72.73,72.73,0,0,1,411,135.51c-.93,2.79-2,5.51-3.2,8.18s-2.48,5.28-3.86,7.83a88.28,88.28,0,0,1-9.57,14.35,200.2,200.2,0,0,1-23.79,23.71c-8.37,7.18-16.83,14-25.42,20.78S327.85,223.64,319,230.05Q292.56,249.28,264.8,266.48Zm0,0q26-19.77,50.69-40.92Q327.84,215,339.79,204q6-5.48,11.89-11c3.92-3.73,7.82-7.46,11.59-11.25a190.65,190.65,0,0,0,20.63-23.89c3-4.22,5.86-8.42,8.42-12.8a74.58,74.58,0,0,0,6.19-13.71,60.86,60.86,0,0,0,2.25-29,52.44,52.44,0,0,0-4.22-13.79,39.21,39.21,0,0,0-8-11.34A32.24,32.24,0,0,0,377.2,70a38.68,38.68,0,0,0-13.68-2.33c-9.6,0-19.55,2.74-29.11,6.61-2.4,1-4.77,2-7.14,3.13s-4.78,2.26-7.12,3.49c-4.72,2.38-9.34,5-13.89,7.65s-9,5.58-13.39,8.53-8.64,6.12-12.81,9.38a260.91,260.91,0,0,0-77.52,99.17h0a6.6,6.6,0,0,1-12.22-4.95A211.09,211.09,0,0,1,205.2,169c5.72-10.07,12-19.65,18.12-29.11s12-18.84,16.76-28.58a103.38,103.38,0,0,0,9.79-30.25c.36-2.6.7-5.26.8-7.74a50.36,50.36,0,0,0-.21-7.49,34.73,34.73,0,0,0-4.08-13.58A26.23,26.23,0,0,0,237,42.6a35.26,35.26,0,0,0-13.38-4.69,40.14,40.14,0,0,0-7.27-.38c-1.22,0-2.43.13-3.63.3s-2.46.34-3.68.63a52,52,0,0,0-7.31,2,67.11,67.11,0,0,0-7.17,3,109.16,109.16,0,0,0-13.8,8.06c-2.24,1.53-4.5,3.08-6.68,4.76l-3.29,2.48L169.14,60l-1.61,1.3A243.34,243.34,0,0,0,122.07,109a246.75,246.75,0,0,0-31.14,58.07A254.6,254.6,0,0,0,78.4,297.24l-11-3.76c3.3-3,6.72-5.84,10.28-8.51s7.26-5.16,11.05-7.49a95.85,95.85,0,0,1,11.82-6.12c4-1.77,8.2-3.26,12.35-4.63a218.64,218.64,0,0,1,25.17-6.58,242.35,242.35,0,0,1,25.6-3.56,256,256,0,0,1,25.66-.91c8.54.08,17.06.56,25.53,1.36s16.89,2,25.23,3.5A207.17,207.17,0,0,1,264.8,266.48Z"/><path class="cls-1" d="M163.63,439.51c10.76,25.27,20.59,50.93,30,76.76l6.86,19.44,6.68,19.5,6.39,19.6,6.23,19.66c2,6.57,4.07,13.13,6.2,19.68l6.19,19.69c2,6.59,3.88,13.2,5.6,19.86s3.22,13.37,4.66,20.1l2,10.13,1.87,10.15q1.75,10.18,3.2,20.42t2.41,20.57c.31,3.45.6,6.9.81,10.36l.31,5.19c.07,1.74.17,3.47.2,5.21l-1.66.35c-.69-1.61-1.3-3.23-2-4.84l-1.82-4.87c-1.22-3.23-2.34-6.49-3.48-9.74-2.3-6.5-4.44-13-6.53-19.56s-4.13-13.08-6.1-19.63l-2.94-9.83-2.83-9.86q-2.84-9.84-5.32-19.78c-.85-3.31-1.65-6.62-2.44-10l-2.26-10-4.45-20c-1.53-6.67-3.14-13.31-4.77-20l-5.08-19.87-5.26-19.83L191,538.64l-5.5-19.77c-7.35-26.37-15.24-52.6-23.46-78.77Z"/><path class="cls-1" d="M162.23,444.2a2.41,2.41,0,0,0,4.06-.73l17-44.28a5,5,0,0,0-4.51-6.79,118.86,118.86,0,0,0-46.07,7.94,5,5,0,0,0-1.85,8C140.8,419.32,162.23,444.2,162.23,444.2Z"/><path class="cls-1" d="M88.39,355.9c-4.13,8.51-1,19.85,6.84,25.09s19.53,3.71,25.78-3.39,6.32-18.84.13-26a18.86,18.86,0,0,0-10.43-6.17C101.5,343.59,91.5,349.47,88.39,355.9Z"/><path class="cls-1" d="M175.18,341.25c-4.13,8.51-1,19.85,6.84,25.09s19.53,3.71,25.79-3.38,6.31-18.85.13-26a18.88,18.88,0,0,0-10.44-6.17C188.3,328.94,178.3,334.83,175.18,341.25Z"/></svg>